<svg width="307.5mm" height="263.8875mm"><circle cx="15mm" cy="15mm" r="1.5mm" fill="white" stroke="black" stroke-width=".5mm" /><circle cx="292mm" cy="15mm" r="1.5mm" fill="white" stroke="black" stroke-width=".5mm" /><circle cx="15mm" cy="25.5mm" r="1.5mm" fill="white" stroke="black" stroke-width=".5mm" /><circle cx="292mm" cy="25.5mm" r="1.5mm" fill="white" stroke="black" stroke-width=".5mm" /><circle cx="15mm" cy="36.0mm" r="1.5mm" fill="white" stroke="black" stroke-width=".5mm" /><circle cx="292mm" cy="36.0mm" r="1.5mm" fill="white" stroke="black" stroke-width=".5mm" /><circle cx="15mm" cy="46.5mm" r="1.5mm" fill="white" stroke="black" stroke-width=".5mm" /><circle cx="292mm" cy="46.5mm" r="1.5mm" fill="white" stroke="black" stroke-width=".5mm" /><circle cx="15mm" cy="57.0mm" r="1.5mm" fill="white" stroke="black" stroke-width=".5mm" /><circle cx="292mm" cy="57.0mm" r="1.5mm" fill="white" stroke="black" stroke-width=".5mm" /><circle cx="15mm" cy="67.5mm" r="1.5mm" fill="white" stroke="black" stroke-width=".5mm" /><circle cx="292mm" cy="67.5mm" r="1.5mm" fill="white" stroke="black" stroke-width=".5mm" /><circle cx="15mm" cy="78.0mm" r="1.5mm" fill="white" stroke="black" stroke-width=".5mm" /><circle cx="292mm" cy="78.0mm" r="1.5mm" fill="white" stroke="black" stroke-width=".5mm" /><circle cx="15mm" cy="88.5mm" r="1.5mm" fill="white" stroke="black" stroke-width=".5mm" /><circle cx="292mm" cy="88.5mm" r="1.5mm" fill="white" stroke="black" stroke-width=".5mm" /><circle cx="15mm" cy="99.0mm" r="1.5mm" fill="white" stroke="black" stroke-width=".5mm" /><circle cx="292mm" cy="99.0mm" r="1.5mm" fill="white" stroke="black" stroke-width=".5mm" /><circle cx="15mm" cy="109.5mm" r="1.5mm" fill="white" stroke="black" stroke-width=".5mm" /><circle cx="292mm" cy="109.5mm" r="1.5mm" fill="white" stroke="black" stroke-width=".5mm" /><circle cx="15mm" cy="120.0mm" r="1.5mm" fill="white" stroke="black" stroke-width=".5mm" /><circle cx="292mm" cy="120.0mm" r="1.5mm" fill="white" stroke="black" stroke-width=".5mm" /><circle cx="15mm" cy="130.5mm" r="1.5mm" fill="white" stroke="black" stroke-width=".5mm" /><circle cx="292mm" cy="130.5mm" r="1.5mm" fill="white" stroke="black" stroke-width=".5mm" /><circle cx="15mm" cy="141.0mm" r="1.5mm" fill="white" stroke="black" stroke-width=".5mm" /><circle cx="292mm" cy="141.0mm" r="1.5mm" fill="white" stroke="black" stroke-width=".5mm" /><circle cx="15mm" cy="151.5mm" r="1.5mm" fill="white" stroke="black" stroke-width=".5mm" /><circle cx="292mm" cy="151.5mm" r="1.5mm" fill="white" stroke="black" stroke-width=".5mm" /><circle cx="15mm" cy="162.0mm" r="1.5mm" fill="white" stroke="black" stroke-width=".5mm" /><circle cx="292mm" cy="162.0mm" r="1.5mm" fill="white" stroke="black" stroke-width=".5mm" /><circle cx="15mm" cy="172.5mm" r="1.5mm" fill="white" stroke="black" stroke-width=".5mm" /><circle cx="292mm" cy="172.5mm" r="1.5mm" fill="white" stroke="black" stroke-width=".5mm" /><circle cx="15mm" cy="183.0mm" r="1.5mm" fill="white" stroke="black" stroke-width=".5mm" /><circle cx="292mm" cy="183.0mm" r="1.5mm" fill="white" stroke="black" stroke-width=".5mm" /><circle cx="15mm" cy="193.5mm" r="1.5mm" fill="white" stroke="black" stroke-width=".5mm" /><circle cx="292mm" cy="193.5mm" r="1.5mm" fill="white" stroke="black" stroke-width=".5mm" /><circle cx="15mm" cy="204.0mm" r="1.5mm" fill="white" stroke="black" stroke-width=".5mm" /><circle cx="292mm" cy="204.0mm" r="1.5mm" fill="white" stroke="black" stroke-width=".5mm" /><circle cx="15mm" cy="214.5mm" r="1.5mm" fill="white" stroke="black" stroke-width=".5mm" /><circle cx="292mm" cy="214.5mm" r="1.5mm" fill="white" stroke="black" stroke-width=".5mm" /><circle cx="15mm" cy="225.0mm" r="1.5mm" fill="white" stroke="black" stroke-width=".5mm" /><circle cx="292mm" cy="225.0mm" r="1.5mm" fill="white" stroke="black" stroke-width=".5mm" /><circle cx="15mm" cy="235.5mm" r="1.5mm" fill="white" stroke="black" stroke-width=".5mm" /><circle cx="292mm" cy="235.5mm" r="1.5mm" fill="white" stroke="black" stroke-width=".5mm" /><text x = "30mm" y = "30mm" fill = "black" font-size = "50">5.6 Meters of Wire Needed</text></svg>